<?xml version="1.0" encoding="UTF-8"?>
<svg xmlns="http://www.w3.org/2000/svg" xmlns:xlink="http://www.w3.org/1999/xlink" width="32px" height="32px" viewBox="0 0 32 32" version="1.1">
<g id="surface1">
<rect x="0" y="0" width="32" height="32" style="fill:rgb(0%,0%,0%);fill-opacity:1;stroke:none;"/>
<path style=" stroke:none;fill-rule:nonzero;fill:rgb(100%,100%,100%);fill-opacity:1;" d="M 14.210938 21.679688 C 14.183594 21.679688 14.183594 21.679688 14.15625 21.652344 C 13.914062 21.574219 13.675781 21.519531 13.460938 21.410156 C 13.21875 21.304688 12.953125 21.199219 12.738281 21.066406 C 12.257812 20.796875 11.832031 20.476562 11.457031 20.101562 C 11.082031 19.726562 10.734375 19.300781 10.46875 18.847656 C 10.199219 18.390625 9.960938 17.882812 9.828125 17.351562 C 9.664062 16.816406 9.613281 16.253906 9.613281 15.691406 C 9.558594 12.351562 12.3125 9.597656 15.679688 9.597656 C 19.046875 9.597656 21.800781 12.351562 21.800781 15.71875 C 21.800781 16.867188 21.480469 17.9375 20.945312 18.847656 C 20.675781 19.300781 20.355469 19.703125 20.007812 20.050781 C 19.929688 20.15625 19.847656 20.234375 19.742188 20.316406 C 19.582031 20.53125 19.6875 20.664062 19.957031 20.664062 L 21.960938 20.664062 C 22.171875 20.664062 22.386719 20.878906 22.386719 21.089844 L 22.386719 21.945312 C 22.386719 22.1875 22.171875 22.375 21.960938 22.402344 L 16.722656 22.402344 C 16.507812 22.402344 16.347656 22.242188 16.347656 22.027344 L 16.347656 16.789062 C 16.347656 16.546875 16.507812 16.386719 16.75 16.386719 L 17.628906 16.386719 C 17.871094 16.386719 18.058594 16.601562 18.058594 16.816406 L 18.058594 18.820312 C 18.058594 18.980469 18.113281 19.140625 18.191406 19.195312 C 19.261719 18.417969 19.957031 17.164062 19.957031 15.71875 C 19.957031 13.339844 18.03125 11.441406 15.679688 11.441406 C 13.328125 11.441406 11.402344 13.367188 11.402344 15.71875 C 11.402344 17.589844 12.578125 19.167969 14.234375 19.753906 C 14.234375 19.753906 14.609375 19.835938 14.609375 20.128906 C 14.609375 20.421875 14.609375 21.144531 14.609375 21.359375 C 14.609375 21.546875 14.476562 21.707031 14.289062 21.707031 C 14.261719 21.679688 14.234375 21.679688 14.210938 21.679688 Z M 14.210938 21.679688 "/>
</g>
</svg>
